<?xml version="1.0" encoding="utf-8"?>
<!-- Generator: Adobe Illustrator 26.2.1, SVG Export Plug-In . SVG Version: 6.00 Build 0)  -->
<svg version="1.1" id="Layer_1" focusable="false" xmlns="http://www.w3.org/2000/svg" xmlns:xlink="http://www.w3.org/1999/xlink"
	 x="0px" y="0px" viewBox="0 0 512 512" style="enable-background:new 0 0 512 512;" xml:space="preserve">
<style type="text/css">
	.st0{display:none;}
	.st1{display:inline;}
	.st2{display:inline;clip-path:url(#SVGID_00000083076200031197346750000004427382594547111599_);}
	.st3{fill:#5865F2;}
	.st4{clip-path:url(#SVGID_00000043421745097171124270000008823247164855239808_);}
	.st5{fill:#23272A;}
</style>
<path class="st0" d="M504,256C504,119,393,8,256,8S8,119,8,256c0,123.8,90.7,226.4,209.2,245V327.7h-63V256h63v-54.6
	c0-62.2,37-96.5,93.7-96.5c27.1,0,55.5,4.8,55.5,4.8v61h-31.3c-30.8,0-40.4,19.1-40.4,38.7V256h68.8l-11,71.7h-57.8V501
	C413.3,482.4,504,379.8,504,256z"/>
<g class="st0">
	<defs>
		<rect id="SVGID_1_" x="4.9" y="46" width="502.2" height="389"/>
	</defs>
	<clipPath id="SVGID_00000003083068919171226510000018089845097781651627_" class="st1">
		<use xlink:href="#SVGID_1_"  style="overflow:visible;"/>
	</clipPath>
	<g style="display:inline;clip-path:url(#SVGID_00000003083068919171226510000018089845097781651627_);">
		<path class="st3" d="M430,80.6C398,66,363.7,55.1,327.8,48.9c-0.7-0.1-1.3,0.2-1.6,0.8c-4.4,7.9-9.3,18.1-12.7,26.1
			c-38.6-5.8-77-5.8-114.8,0c-3.4-8.2-8.5-18.3-12.9-26.1c-0.3-0.6-1-0.9-1.6-0.8c-35.9,6.2-70.2,17-102.2,31.7
			c-0.3,0.1-0.5,0.3-0.7,0.6C16.1,178.5-1.8,273.3,7,367c0,0.5,0.3,0.9,0.7,1.2c43,31.5,84.6,50.7,125.4,63.4c0.7,0.2,1.3,0,1.8-0.6
			c9.7-13.2,18.3-27.1,25.7-41.7c0.4-0.9,0-1.9-0.9-2.2c-13.7-5.2-26.7-11.5-39.2-18.7c-1-0.6-1.1-2-0.2-2.7c2.6-2,5.3-4,7.8-6.1
			c0.5-0.4,1.1-0.5,1.6-0.2c82.2,37.5,171.2,37.5,252.4,0c0.5-0.3,1.2-0.2,1.6,0.2c2.5,2.1,5.1,4.1,7.8,6.1c0.9,0.7,0.9,2.1-0.1,2.7
			c-12.5,7.3-25.5,13.5-39.2,18.7c-0.9,0.3-1.3,1.4-0.9,2.2c7.5,14.6,16.2,28.5,25.6,41.7c0.4,0.6,1.1,0.8,1.8,0.6
			c41-12.7,82.6-31.8,125.6-63.4c0.4-0.3,0.6-0.7,0.7-1.2c10.5-108.3-17.5-202.4-74.2-285.8C430.5,81,430.3,80.8,430,80.6z
			 M172.7,310c-24.7,0-45.1-22.7-45.1-50.6s20-50.6,45.1-50.6c25.3,0,45.5,22.9,45.1,50.6C217.9,287.3,197.9,310,172.7,310z
			 M339.6,310c-24.7,0-45.1-22.7-45.1-50.6s20-50.6,45.1-50.6c25.3,0,45.5,22.9,45.1,50.6C384.7,287.3,364.9,310,339.6,310z"/>
	</g>
</g>
<g>
	<defs>
		<rect id="SVGID_00000116205988402158542050000004662024506074208180_" x="26.4" y="57.4" width="472.6" height="366.1"/>
	</defs>
	<clipPath id="SVGID_00000183932893790749388770000006191485810162856894_">
		<use xlink:href="#SVGID_00000116205988402158542050000004662024506074208180_"  style="overflow:visible;"/>
	</clipPath>
	<g style="clip-path:url(#SVGID_00000183932893790749388770000006191485810162856894_);">
		<path class="st5" d="M426.5,90c-30.1-13.8-62.4-24-96.2-29.8c-0.6-0.1-1.2,0.2-1.5,0.7c-4.2,7.4-8.8,17-12,24.6
			c-36.3-5.4-72.5-5.4-108,0c-3.2-7.7-8-17.2-12.2-24.6c-0.3-0.5-0.9-0.8-1.5-0.7c-33.8,5.8-66.1,16-96.2,29.8
			c-0.3,0.1-0.5,0.3-0.6,0.5c-61.3,91.5-78.1,180.8-69.8,269c0,0.4,0.3,0.8,0.6,1.1c40.4,29.7,79.6,47.7,118,59.7
			c0.6,0.2,1.3,0,1.7-0.5c9.1-12.4,17.2-25.5,24.1-39.3c0.4-0.8,0-1.8-0.8-2.1c-12.9-4.9-25.1-10.8-36.9-17.6
			c-0.9-0.5-1-1.9-0.1-2.5c2.5-1.9,5-3.8,7.3-5.7c0.4-0.4,1-0.4,1.5-0.2c77.3,35.3,161.1,35.3,237.5,0c0.5-0.2,1.1-0.2,1.5,0.2
			c2.4,2,4.8,3.9,7.3,5.8c0.9,0.6,0.8,2-0.1,2.5c-11.8,6.9-24,12.7-36.9,17.6c-0.8,0.3-1.2,1.3-0.8,2.1
			c7.1,13.7,15.2,26.8,24.1,39.3c0.4,0.5,1,0.8,1.7,0.6c38.6-11.9,77.8-30,118.2-59.7c0.4-0.3,0.6-0.7,0.6-1.1
			c9.9-101.9-16.5-190.5-69.9-269C427,90.3,426.7,90.1,426.5,90z M184.3,305.9c-23.3,0-42.5-21.4-42.5-47.6s18.8-47.6,42.5-47.6
			c23.8,0,42.8,21.6,42.5,47.6C226.8,284.5,208,305.9,184.3,305.9z M341.4,305.9c-23.3,0-42.5-21.4-42.5-47.6s18.8-47.6,42.5-47.6
			c23.8,0,42.8,21.6,42.5,47.6C383.8,284.5,365.2,305.9,341.4,305.9z"/>
	</g>
</g>
</svg>
